<svg width="940" height="240" viewBox="0 0 940 240" fill="none" xmlns="http://www.w3.org/2000/svg">
  <g transform="translate(18 10)">
    <path d="M32 26H154C214 26 258 68 258 125C258 182 214 224 154 224H108V190H146C184 190 212 165 212 125C212 84 184 60 146 60H108V224H32V26Z" fill="#071427"/>
    <path d="M95 59H154C193 59 221 85 221 124C221 162 193 188 154 188H95" stroke="#FFFFFF" stroke-opacity="0.18" stroke-width="24" stroke-linecap="round" stroke-linejoin="round"/>
    <path d="M122 154L260 264" stroke="#071427" stroke-width="44" stroke-linecap="round"/>
  </g>
  <text x="320" y="145" fill="#071427" font-size="96" font-weight="700" font-family="Space Grotesk, Manrope, Inter, Sora, Montserrat, Arial, sans-serif" letter-spacing="-4">Ryxen</text>
</svg>
