<svg width="940" height="240" viewBox="0 0 940 240" fill="none" xmlns="http://www.w3.org/2000/svg">
  <defs>
    <linearGradient id="ryxenBlue" x1="46" y1="34" x2="258" y2="230" gradientUnits="userSpaceOnUse">
      <stop stop-color="#7BE1FF"/>
      <stop offset="1" stop-color="#2F8FFF"/>
    </linearGradient>
    <linearGradient id="ryxenOrange" x1="198" y1="134" x2="352" y2="252" gradientUnits="userSpaceOnUse">
      <stop stop-color="#FFC56B"/>
      <stop offset="1" stop-color="#FF8230"/>
    </linearGradient>
  </defs>
  <g transform="translate(18 10)">
    <path d="M32 26H154C214 26 258 68 258 125C258 182 214 224 154 224H108V190H146C184 190 212 165 212 125C212 84 184 60 146 60H108V224H32V26Z" fill="url(#ryxenBlue)"/>
    <path d="M95 59H154C193 59 221 85 221 124C221 162 193 188 154 188H95" stroke="#05101A" stroke-opacity="0.88" stroke-width="24" stroke-linecap="round" stroke-linejoin="round"/>
    <path d="M122 154L260 264" stroke="url(#ryxenOrange)" stroke-width="44" stroke-linecap="round"/>
  </g>
  <text x="320" y="145" fill="#F7FBFF" font-size="96" font-weight="700" font-family="Space Grotesk, Manrope, Inter, Sora, Montserrat, Arial, sans-serif" letter-spacing="-4">Ryxen</text>
</svg>
